<svg xmlns="http://www.w3.org/2000/svg" viewBox="0 0 130 137" id="share"><g data-name="Layer 2"><g data-name="Layer 1"><path fill="#f93052" d="M117.44 68.6a53.52 53.52 0 1 1-2.81-17.21 53.76 53.76 0 0 1 2.81 17.21z"></path><path fill="#f15a24" d="M114.62 51.38l-68.16 68.17a53.43 53.43 0 01-17.32-9.76c.22-.27.44-.52.69-.77l73.32-73.32a9.82 9.82 0 011.85-1.45 53.82 53.82 0 019.62 17.13zM93.28 23.71c-.18.21-.36.41-.57.61L19.4 97.64c-.2.2-.4.38-.61.57A53.34 53.34 0 0110.91 79L74 15.84a53.34 53.34 0 0119.28 7.87z"></path><path fill="#ed1c24" d="M129.31 62.5a65 65 0 0 1-128.62 0A66.08 66.08 0 0 0 0 72a65 65 0 0 0 130 0 66.08 66.08 0 0 0-.69-9.5z"></path><path fill="#f7931e" d="M65 20a45 45 0 1 1-45 45 45.05 45.05 0 0 1 45-45m0-20a65 65 0 1 0 65 65A65 65 0 0 0 65 0z"></path><path fill="#f15a24" d="M65.5 111c-25.27 0-47.76-9.89-62.11-25.26A65 65 0 0 0 126 87.37C111.64 101.81 89.86 111 65.5 111z"></path><rect width="22" height="22" x="34.83" y="58.47" fill="#c1272d" rx="11" ry="11"></rect><rect width="9.77" height="34.75" x="53.57" y="39.78" fill="#c1272d" rx="4.89" ry="4.89" transform="rotate(65.91 58.453 57.165)"></rect><rect width="9.77" height="34.75" x="54.77" y="62.88" fill="#c1272d" rx="4.89" ry="4.89" transform="rotate(116.88 59.657 80.263)"></rect><rect width="22" height="22" x="33.34" y="56.75" fill="#fff" rx="11" ry="11"></rect><rect width="22" height="22" x="67.58" y="38.47" fill="#c1272d" rx="11" ry="11"></rect><rect width="22" height="22" x="67.58" y="36.75" fill="#fff" rx="11" ry="11"></rect><rect width="22" height="22" x="67.58" y="76.47" fill="#c1272d" rx="11" ry="11"></rect><rect width="22" height="22" x="67.58" y="74.75" fill="#fff" rx="11" ry="11"></rect><rect width="9.77" height="39.36" x="55.55" y="59.88" fill="#fff" rx="4.89" ry="4.89" transform="rotate(116.88 60.435 79.556)"></rect><rect width="9.77" height="38.6" x="53.85" y="36.66" fill="#fff" rx="4.89" ry="4.89" transform="rotate(65.91 58.736 55.962)"></rect></g></g></svg>